<svg xmlns="http://www.w3.org/2000/svg" viewBox="0 0 56.72 56.72"><defs><style>.cls-1{fill:#ed7457;}.cls-2{fill:none;}</style></defs><g id="Layer_2" data-name="Layer 2"><g id="Layer_1-2" data-name="Layer 1"><path class="cls-1" d="M14.21,48.67a31.83,31.83,0,0,0,6.11,3.19,31.73,31.73,0,0,1-2.8-12.44,3.4,3.4,0,0,1,1.54-2.67,31.62,31.62,0,0,1,14.78-4,3.4,3.4,0,0,1,2.68,1.54,31.82,31.82,0,0,1,3.94,14.51c2.31-1.18,7-3.12,7.39-7.53S45.67,35,47.57,30.09c-1.67.2-2.48,1.12-3.22,2.92a5.55,5.55,0,0,1-2.06,2.78A1.81,1.81,0,0,1,39.4,34.6c-.21-1.33,1.07-2,1.88-3.07,3-4,.8-10.63-3.94-12.07a3.1,3.1,0,1,1-5,3.58c-1.3-2.39.85-5.14,1.25-7.83a6.14,6.14,0,0,0-2-5.43C30,8.34,27.26,6.84,28.17,4.86c-1.5.5-2,2.36-2,3.93s.5,3.19,0,4.69c-1.12,3.48-6.34,4.25-7.44,7.73-.59,1.86.33,5,.59,6.89.4,3-.48,7.12-3.21,6.51-2.49-.57-1.36-3.19-1.29-5,.11-2.84-.68-5-3.12-5.56,1.46,5.09-3.07,10-2.92,15.42A11.69,11.69,0,0,0,14.21,48.67Z"/><polygon class="cls-1" points="26.73 40.5 26.73 48.02 33.24 44.26 26.73 40.5"/><rect class="cls-2" width="56.72" height="56.72"/></g></g></svg>