<svg xmlns="http://www.w3.org/2000/svg" viewBox="0 0 124.95 124.95"><defs><style>.cls-1{fill:#3b5753;}.cls-2{fill:none;}</style></defs><g id="Layer_2" data-name="Layer 2"><g id="Layer_1-2" data-name="Layer 1"><path class="cls-1" d="M20.8,95c-.28,2.87-1.88,4.1-5.34,4.1-4,0-5.75-1.6-5.75-5.34s1.73-5.34,5.75-5.34c3.46,0,5.06,1.24,5.34,4.11H17.11a1.48,1.48,0,0,0-1.65-1.44c-1.43,0-2.05.81-2.05,2.67s.62,2.67,2.05,2.67A1.49,1.49,0,0,0,17.11,95Z"/><path class="cls-1" d="M22.24,86.55h3.7V89a4.55,4.55,0,0,1,2.46-.58c2.88,0,4.11,1.48,4.11,4.93v5.55h-3.7V93.38c0-1.58-.43-2.26-1.43-2.26s-1.44.68-1.44,2.26v5.55h-3.7Z"/><path class="cls-1" d="M38.88,92.36h1.44V92c0-1-.42-1.44-1.34-1.44s-1.33.37-1.33,1.23h-3.5c0-2.3,1.48-3.29,4.93-3.29S44,89.62,44,92.36v6.57H41.14l-.44-.74a4.14,4.14,0,0,1-3.05.94c-2.74,0-3.91-1-3.91-3.28S35.28,92.36,38.88,92.36Zm.41,2c-1.3,0-1.85.29-1.85,1.23,0,.78.37,1,1.23,1,1.15,0,1.65-.56,1.65-1.85v-.41Z"/><path class="cls-1" d="M51.57,91.53c-1.42,0-2,.68-2,2.26v5.14h-3.7V88.66h2.87l.5.88a2.77,2.77,0,0,1,2.38-.88h1.64v2.87H51.57Z"/><path class="cls-1" d="M60.17,91.53c-1.41,0-2,.68-2,2.26v5.14h-3.7V88.66h2.88l.49.88a2.78,2.78,0,0,1,2.38-.88h1.65v2.87H60.17Z"/><path class="cls-1" d="M66.77,98.93h-3.7V88.66H66l.57,1a3,3,0,0,1,2.71-1.24,3.19,3.19,0,0,1,2.9,1.3,3.46,3.46,0,0,1,3.06-1.3c2.73,0,3.9,1.48,3.9,4.93v5.55h-3.7V93.38c0-1.58-.37-2.26-1.23-2.26s-1.23.68-1.23,2.26v5.55h-3.7V93.38c0-1.58-.37-2.26-1.23-2.26s-1.23.68-1.23,2.26Z"/><path class="cls-1" d="M85.87,96.87a1.43,1.43,0,0,0,1.64-1.23H91c-.43,2.45-2,3.49-5.13,3.49-3.89,0-5.55-1.6-5.55-5.34s1.66-5.34,5.55-5.34,5.54,1.61,5.54,5.34v1H84C84,96.26,84.57,96.87,85.87,96.87ZM84,92.77h3.69c0-1.44-.55-2.06-1.84-2.06S84,91.33,84,92.77Z"/><path class="cls-1" d="M96.54,98.93H92.85V86.55h3.69Z"/><path class="cls-1" d="M102.3,98.93H98.6V86.55h3.7Z"/><path class="cls-1" d="M115.23,93.79c0,3.74-1.72,5.34-5.75,5.34s-5.75-1.6-5.75-5.34,1.73-5.34,5.75-5.34S115.23,90.06,115.23,93.79Zm-5.75,2.67c1.44,0,2.06-.8,2.06-2.67s-.62-2.67-2.06-2.67-2,.81-2,2.67S108.05,96.46,109.48,96.46Z"/><path class="cls-1" d="M48.46,66.15a29.29,29.29,0,0,0,5.63,2.93,29.13,29.13,0,0,1-2.58-11.45,3.11,3.11,0,0,1,1.42-2.46,29.09,29.09,0,0,1,13.61-3.65A3.13,3.13,0,0,1,69,52.94a29.41,29.41,0,0,1,3.08,8.43,29.76,29.76,0,0,1,.55,4.93c2.12-1.09,6.44-2.88,6.8-6.93s-2-5.83-.26-10.33c-1.53.18-2.28,1-3,2.69a5,5,0,0,1-1.9,2.55,1.67,1.67,0,0,1-2.66-1.09c-.19-1.23,1-1.83,1.74-2.83,2.74-3.65.73-9.78-3.64-11.1a2.84,2.84,0,1,1-4.59,3.29c-1.2-2.2.78-4.73,1.15-7.21a5.7,5.7,0,0,0-1.82-5c-1.5-1.33-4-2.7-3.18-4.53-1.37.46-1.87,2.17-1.8,3.62s.46,2.94,0,4.32c-1,3.2-5.84,3.91-6.85,7.11-.54,1.71.3,4.57.54,6.35.37,2.77-.44,6.55-2.95,6-2.3-.52-1.25-2.94-1.19-4.62.1-2.61-.62-4.56-2.87-5.11,1.35,4.68-2.83,9.16-2.69,14.2A10.78,10.78,0,0,0,48.46,66.15Z"/><polygon class="cls-1" points="59.99 65.55 65.98 62.09 59.99 58.63 59.99 65.55"/><path class="cls-1" d="M38.19,71.07c.44-1.23.48-2.34.08-2.49L33,69.19,36.66,73C37.06,73.17,37.74,72.29,38.19,71.07Z"/><path class="cls-1" d="M64.35,83.24,75.61,85H90.18l-5.53-2L43.92,68.13c.39.8.17,2.79-.57,4.82-.12.33-.25.65-.39,1l9.6,5L42.13,75.47A4.24,4.24,0,0,1,40.69,77L62.54,85h6.54ZM49.27,72.37,72,80.7,59.51,78.14Z"/><path class="cls-1" d="M78.24,70.71l-1.36-3.83-4,1.45-1.83,3.09-5.83,2.12L74.68,77l11.59-2.65L76.8,77.75l2.24.82L91.74,74c.37-.78.17-2.64-.49-4.57l-8.39,2,7.93-3.15a6.63,6.63,0,0,0-2.29-3.14l-9.61,3.49Z"/><polygon class="cls-1" points="33.85 84.96 56.12 84.96 44.98 80.91 33.85 84.96"/><rect class="cls-2" width="124.95" height="124.95"/></g></g></svg>