<svg xmlns="http://www.w3.org/2000/svg" viewBox="0 0 124.95 124.95"><defs><style>.cls-1{fill:#3b5753;}.cls-2{fill:#ed7457;}.cls-3{fill:none;}</style></defs><g id="Layer_2" data-name="Layer 2"><g id="Layer_1-2" data-name="Layer 1"><path class="cls-1" d="M20.8,98.93c-.28,2.88-1.88,4.11-5.34,4.11-4,0-5.75-1.6-5.75-5.34s1.73-5.34,5.75-5.34c3.46,0,5.06,1.23,5.34,4.11H17.11A1.47,1.47,0,0,0,15.46,95c-1.43,0-2.05.8-2.05,2.67s.62,2.67,2.05,2.67a1.49,1.49,0,0,0,1.65-1.44Z"/><path class="cls-1" d="M22.24,90.46h3.7v2.48a4.55,4.55,0,0,1,2.46-.58c2.88,0,4.11,1.48,4.11,4.93v5.55h-3.7V97.29c0-1.58-.43-2.26-1.43-2.26s-1.44.68-1.44,2.26v5.55h-3.7Z"/><path class="cls-1" d="M38.88,96.26h1.44v-.41c0-1-.42-1.44-1.34-1.44s-1.33.37-1.33,1.24h-3.5c0-2.3,1.48-3.29,4.93-3.29S44,93.53,44,96.26v6.58H41.14l-.44-.74a4.18,4.18,0,0,1-3.05.94c-2.74,0-3.91-1-3.91-3.29S35.28,96.26,38.88,96.26Zm.41,2.06c-1.3,0-1.85.28-1.85,1.23,0,.78.37,1,1.23,1,1.15,0,1.65-.56,1.65-1.85v-.41Z"/><path class="cls-1" d="M51.57,95.44c-1.42,0-2,.68-2,2.26v5.14h-3.7V92.57h2.87l.5.88a2.77,2.77,0,0,1,2.38-.88h1.64v2.87H51.57Z"/><path class="cls-1" d="M60.17,95.44c-1.41,0-2,.68-2,2.26v5.14h-3.7V92.57h2.88l.49.88a2.78,2.78,0,0,1,2.38-.88h1.65v2.87H60.17Z"/><path class="cls-1" d="M66.77,102.84h-3.7V92.57H66l.57,1a3,3,0,0,1,2.71-1.23,3.21,3.21,0,0,1,2.9,1.29,3.48,3.48,0,0,1,3.06-1.29c2.73,0,3.9,1.48,3.9,4.93v5.55h-3.7V97.29c0-1.58-.37-2.26-1.23-2.26s-1.23.68-1.23,2.26v5.55h-3.7V97.29c0-1.58-.37-2.26-1.23-2.26s-1.23.68-1.23,2.26Z"/><path class="cls-1" d="M85.87,100.78a1.43,1.43,0,0,0,1.64-1.23H91C90.57,102,89,103,85.87,103c-3.89,0-5.55-1.6-5.55-5.34s1.66-5.34,5.55-5.34,5.54,1.6,5.54,5.34v1H84C84,100.17,84.57,100.78,85.87,100.78ZM84,96.67h3.69c0-1.43-.55-2-1.84-2S84,95.24,84,96.67Z"/><path class="cls-1" d="M96.54,102.84H92.85V90.46h3.69Z"/><path class="cls-1" d="M102.3,102.84H98.6V90.46h3.7Z"/><path class="cls-1" d="M115.23,97.7c0,3.74-1.72,5.34-5.75,5.34s-5.75-1.6-5.75-5.34,1.73-5.34,5.75-5.34S115.23,94,115.23,97.7Zm-5.75,2.67c1.44,0,2.06-.8,2.06-2.67S110.92,95,109.48,95s-2,.8-2,2.67S108.05,100.37,109.48,100.37Z"/><path class="cls-2" d="M93.24,68l-8.63,3.42,9.12-2.15c.72,2.1.93,4.12.53,5l-13.79,5L78,78.32l10.28-3.71L75.74,77.49,65.46,73.75l6.34-2.31,2-3.35,4.34-1.58,1.48,4.17.71-2.34,10.44-3.8C91.5,64.88,92.47,66.23,93.24,68ZM59.77,65.07V57.55l6.51,3.76Zm-15-24c2.44.61,3.23,2.72,3.12,5.56-.07,1.82-1.21,4.45,1.29,5,2.72.61,3.61-3.49,3.2-6.5-.26-1.93-1.18-5-.59-6.89,1.1-3.49,6.33-4.25,7.44-7.73.49-1.5,0-3.12,0-4.69s.47-3.44,2-3.93c-.9,2,1.82,3.47,3.45,4.91a6.21,6.21,0,0,1,2,5.44c-.4,2.68-2.55,5.44-1.25,7.82a3.09,3.09,0,1,0,5-3.57c4.75,1.44,6.93,8.1,4,12.06-.81,1.08-2.09,1.74-1.89,3.07a1.81,1.81,0,0,0,2.89,1.19,5.54,5.54,0,0,0,2.07-2.77c.74-1.81,1.54-2.72,3.21-2.93-1.9,4.89.67,6.93.28,11.23s-5.08,6.35-7.38,7.53a32.57,32.57,0,0,0-.6-5.36,31.78,31.78,0,0,0-3.35-9.16,3.4,3.4,0,0,0-2.67-1.54,31.62,31.62,0,0,0-14.78,4,3.4,3.4,0,0,0-1.55,2.67A31.7,31.7,0,0,0,53.37,68.9a31.26,31.26,0,0,1-6.12-3.18,11.72,11.72,0,0,1-5.37-9.21C41.74,51,46.27,46.17,44.81,41.08Zm-8.72,30c-.48,1.33-1.22,2.29-1.66,2.13L30.49,69l5.7-.66C36.62,68.52,36.58,69.73,36.09,71.06Z"/><path class="cls-2" d="M47.25,65.72a31.26,31.26,0,0,0,6.12,3.18,31.7,31.7,0,0,1-2.81-12.44,3.4,3.4,0,0,1,1.55-2.67,31.62,31.62,0,0,1,14.78-4,3.4,3.4,0,0,1,2.67,1.54,31.78,31.78,0,0,1,3.35,9.16,32.57,32.57,0,0,1,.6,5.36c2.3-1.18,7-3.13,7.38-7.53S78.71,52,80.61,47.13c-1.67.21-2.47,1.12-3.21,2.93a5.54,5.54,0,0,1-2.07,2.77,1.81,1.81,0,0,1-2.89-1.19c-.2-1.33,1.08-2,1.89-3.07,3-4,.8-10.62-4-12.06a3.09,3.09,0,1,1-5,3.57c-1.3-2.38.85-5.14,1.25-7.82a6.21,6.21,0,0,0-2-5.44c-1.63-1.44-4.35-2.93-3.45-4.91-1.49.49-2,2.35-2,3.93s.51,3.19,0,4.69c-1.11,3.48-6.34,4.24-7.44,7.73-.59,1.85.33,5,.59,6.89.41,3-.48,7.11-3.2,6.5-2.5-.56-1.36-3.19-1.29-5,.11-2.84-.68-5-3.12-5.56,1.46,5.09-3.07,10-2.93,15.43A11.72,11.72,0,0,0,47.25,65.72Z"/><polygon class="cls-2" points="59.77 57.55 59.77 65.07 66.28 61.31 59.77 57.55"/><path class="cls-2" d="M36.19,68.36l-5.7.66,3.94,4.17c.44.16,1.18-.8,1.66-2.13S36.62,68.52,36.19,68.36Z"/><path class="cls-2" d="M66.06,84.84,75,86.47A64.76,64.76,0,0,0,86.5,84L42.32,67.87c.43.87.18,3-.62,5.23-.13.36-.27.71-.42,1L51.7,79.58,40.37,75.85a4.5,4.5,0,0,1-1.56,1.66l26.71,9.72q3.11-.09,6.06-.38ZM48.13,72.48l24.69,9L59.26,78.74Z"/><path class="cls-2" d="M79.6,70.68l-1.48-4.17-4.34,1.58-2,3.35-6.34,2.31,10.28,3.74,12.58-2.88L78,78.32l2.43.89,13.79-5c.4-.84.19-2.86-.53-5l-9.12,2.15L93.24,68c-.77-1.73-1.74-3.08-2.49-3.42l-10.44,3.8Z"/><path class="cls-2" d="M37.88,83.79A74.85,74.85,0,0,0,58.44,87.2l-15-5.45Z"/><rect class="cls-3" width="124.95" height="124.95"/></g></g></svg>