<svg xmlns="http://www.w3.org/2000/svg" viewBox="0 0 92.01 92.01"><defs><style>.cls-1{fill:#fff;}.cls-2{fill:none;}</style></defs><g id="Layer_2" data-name="Layer 2"><g id="Layer_1-2" data-name="Layer 1"><path class="cls-1" d="M76.77,59.4l-8.63,3.41,9.12-2.15c.72,2.1.93,4.13.53,5L64,70.64l-2.43-.88L71.85,66,59.27,68.92,49,65.18l6.34-2.3,2-3.36,4.34-1.58,1.48,4.17.71-2.33L74.28,56C75,56.32,76,57.66,76.77,59.4ZM43.3,56.5V49l6.51,3.76Zm-15-24c2.44.6,3.23,2.72,3.12,5.55-.07,1.82-1.21,4.45,1.29,5,2.72.62,3.61-3.49,3.2-6.5-.26-1.93-1.18-5-.59-6.89,1.1-3.48,6.33-4.25,7.44-7.73.49-1.5.05-3.12,0-4.69s.47-3.44,2-3.93c-.9,2,1.82,3.47,3.45,4.92a6.19,6.19,0,0,1,2,5.43c-.4,2.69-2.55,5.44-1.25,7.83a3.09,3.09,0,1,0,5-3.58c4.75,1.44,6.93,8.1,4,12.07-.81,1.08-2.09,1.73-1.89,3.07a1.81,1.81,0,0,0,2.89,1.18,5.46,5.46,0,0,0,2.07-2.77c.74-1.8,1.54-2.72,3.21-2.92-1.9,4.88.67,6.93.28,11.22S59.34,56.14,57,57.32a32.69,32.69,0,0,0-.6-5.36,31.83,31.83,0,0,0-3.35-9.15,3.38,3.38,0,0,0-2.67-1.55,31.85,31.85,0,0,0-14.78,4,3.41,3.41,0,0,0-1.55,2.68A31.74,31.74,0,0,0,36.9,60.34a31.89,31.89,0,0,1-6.12-3.19,11.72,11.72,0,0,1-5.37-9.21C25.27,42.47,29.8,37.6,28.34,32.52Zm-8.72,30c-.48,1.33-1.22,2.28-1.66,2.12L14,60.45l5.7-.65C20.15,60,20.11,61.16,19.62,62.5Z"/><path class="cls-1" d="M30.78,57.15a31.89,31.89,0,0,0,6.12,3.19A31.74,31.74,0,0,1,34.09,47.9a3.41,3.41,0,0,1,1.55-2.68,31.85,31.85,0,0,1,14.78-4,3.38,3.38,0,0,1,2.67,1.55A31.83,31.83,0,0,1,56.44,52a32.69,32.69,0,0,1,.6,5.36c2.3-1.18,7-3.13,7.38-7.53s-2.18-6.34-.28-11.22c-1.67.2-2.47,1.12-3.21,2.92a5.46,5.46,0,0,1-2.07,2.77A1.81,1.81,0,0,1,56,43.08c-.2-1.34,1.08-2,1.89-3.07,3-4,.8-10.63-4-12.07a3.09,3.09,0,1,1-5,3.58c-1.3-2.39.85-5.14,1.25-7.83a6.19,6.19,0,0,0-2-5.43c-1.63-1.45-4.35-2.94-3.45-4.92-1.49.49-2,2.36-2,3.93s.51,3.19,0,4.69c-1.11,3.48-6.34,4.25-7.44,7.73-.59,1.85.33,5,.59,6.89.41,3-.48,7.12-3.2,6.5-2.5-.56-1.36-3.19-1.29-5,.11-2.83-.68-5-3.12-5.55,1.46,5.08-3.07,9.95-2.93,15.42A11.72,11.72,0,0,0,30.78,57.15Z"/><polygon class="cls-1" points="43.3 48.98 43.3 56.5 49.81 52.74 43.3 48.98"/><path class="cls-1" d="M19.72,59.8l-5.7.65L18,64.62c.44.16,1.18-.79,1.66-2.12S20.15,60,19.72,59.8Z"/><path class="cls-1" d="M49.59,76.28,58.5,77.9A63.89,63.89,0,0,0,70,75.38L25.85,59.3c.43.88.18,3-.62,5.24-.13.36-.27.7-.42,1L35.23,71,23.9,67.28A4.46,4.46,0,0,1,22.34,69l26.71,9.72q3.11-.11,6.06-.38ZM31.66,63.91l24.69,9L42.79,70.17Z"/><path class="cls-1" d="M63.13,62.11l-1.48-4.17-4.34,1.58-2,3.36L49,65.18l10.28,3.74L71.85,66,61.57,69.76l2.43.88,13.79-5c.4-.83.19-2.86-.53-5l-9.12,2.15,8.63-3.41C76,57.66,75,56.32,74.28,56l-10.44,3.8Z"/><path class="cls-1" d="M21.41,75.22A74.85,74.85,0,0,0,42,78.63L27,73.18Z"/><rect class="cls-2" width="92.01" height="92.01"/></g></g></svg>