<svg xmlns="http://www.w3.org/2000/svg" viewBox="0 0 65.89 65.89"><defs><style>.cls-1{fill:#3a3735;}</style></defs><g id="Layer_2" data-name="Layer 2"><g id="Layer_1-2" data-name="Layer 1"><path class="cls-1" d="M63,9.54a10.43,10.43,0,0,0-6.67-6.67,96.87,96.87,0,0,0-46.81,0A10.41,10.41,0,0,0,2.87,9.54a96.79,96.79,0,0,0,0,46.81A10.43,10.43,0,0,0,9.54,63a98.07,98.07,0,0,0,23.4,2.87A98.09,98.09,0,0,0,56.35,63,10.45,10.45,0,0,0,63,56.35,97,97,0,0,0,63,9.54ZM59.15,55.35a6.61,6.61,0,0,1-3.75,3.78,94.37,94.37,0,0,1-22.46,2.76,94.63,94.63,0,0,1-22.4-2.74,6.65,6.65,0,0,1-3.79-3.76,93.34,93.34,0,0,1,0-44.85,6.66,6.66,0,0,1,3.75-3.79A94.85,94.85,0,0,1,32.94,4,94.65,94.65,0,0,1,55.35,6.74a6.61,6.61,0,0,1,3.78,3.75A93.26,93.26,0,0,1,59.15,55.35Z"/><polygon class="cls-1" points="27.02 42.13 42.94 32.94 27.02 23.75 27.02 42.13"/></g></g></svg>