<svg xmlns="http://www.w3.org/2000/svg" viewBox="0 0 32.94 32.94"><defs><style>.cls-1{fill:#3a3735;}</style></defs><g id="Layer_2" data-name="Layer 2"><g id="Layer_1-2" data-name="Layer 1"><path class="cls-1" d="M31.51,4.77a5.24,5.24,0,0,0-3.34-3.34A49.29,49.29,0,0,0,16.47,0,49.29,49.29,0,0,0,4.77,1.43,5.24,5.24,0,0,0,1.43,4.77a48.5,48.5,0,0,0,0,23.4,5.22,5.22,0,0,0,3.34,3.34,48.78,48.78,0,0,0,11.7,1.43,48.78,48.78,0,0,0,11.7-1.43,5.24,5.24,0,0,0,3.34-3.34A48.5,48.5,0,0,0,31.51,4.77ZM29.57,27.68a3.28,3.28,0,0,1-1.87,1.89,47.46,47.46,0,0,1-11.23,1.37,47,47,0,0,1-11.2-1.37A3.28,3.28,0,0,1,3.38,27.7a46.63,46.63,0,0,1,0-22.43A3.33,3.33,0,0,1,5.25,3.38a46.42,46.42,0,0,1,22.43,0,3.33,3.33,0,0,1,1.89,1.88A46.75,46.75,0,0,1,29.57,27.68Z"/><polygon class="cls-1" points="21.3 10.23 16.47 15.06 11.65 10.23 10.23 11.65 15.06 16.47 10.23 21.3 11.65 22.71 16.47 17.89 21.3 22.71 22.71 21.3 17.89 16.47 22.71 11.65 21.3 10.23"/></g></g></svg>