<svg xmlns="http://www.w3.org/2000/svg" viewBox="0 0 33.68 33.68"><defs><style>.cls-1{fill:#3a3735;}</style></defs><g id="Layer_2" data-name="Layer 2"><g id="Layer_1-2" data-name="Layer 1"><path class="cls-1" d="M32.22,4.88a5.32,5.32,0,0,0-3.41-3.41,49.43,49.43,0,0,0-23.93,0A5.27,5.27,0,0,0,1.47,4.88a49.39,49.39,0,0,0,0,23.92,5.31,5.31,0,0,0,3.41,3.42,50.44,50.44,0,0,0,12,1.46,50.52,50.52,0,0,0,12-1.46,5.35,5.35,0,0,0,3.41-3.42A49.63,49.63,0,0,0,32.22,4.88ZM30.28,28.31a3.39,3.39,0,0,1-2,2,48,48,0,0,1-11.49,1.41,48.18,48.18,0,0,1-11.46-1.4,3.38,3.38,0,0,1-2-2,47.81,47.81,0,0,1,0-23,3.39,3.39,0,0,1,1.95-2,47.6,47.6,0,0,1,23,0,3.39,3.39,0,0,1,2,1.95A47.81,47.81,0,0,1,30.28,28.31Z"/><path class="cls-1" d="M21.22,15.84a5.14,5.14,0,1,0-2.28,4.28L21.82,23l1.41-1.41-2.88-2.88A5.14,5.14,0,0,0,21.22,15.84ZM16.07,19a3.15,3.15,0,1,1,3.15-3.15A3.15,3.15,0,0,1,16.07,19Z"/></g></g></svg>