<svg xmlns="http://www.w3.org/2000/svg" viewBox="0 0 33.68 33.68"><defs><style>.cls-1{fill:#3a3735;}</style></defs><g id="Layer_2" data-name="Layer 2"><g id="Layer_1-2" data-name="Layer 1"><path class="cls-1" d="M32.22,4.88A5.31,5.31,0,0,0,28.8,1.47a49.39,49.39,0,0,0-23.92,0A5.27,5.27,0,0,0,1.47,4.88a49.39,49.39,0,0,0,0,23.92,5.31,5.31,0,0,0,3.41,3.42,50.44,50.44,0,0,0,12,1.46,50.37,50.37,0,0,0,12-1.46,5.35,5.35,0,0,0,3.42-3.42A49.63,49.63,0,0,0,32.22,4.88ZM30.28,28.31a3.39,3.39,0,0,1-2,2,48.11,48.11,0,0,1-11.49,1.41,48.18,48.18,0,0,1-11.46-1.4,3.38,3.38,0,0,1-2-2,47.81,47.81,0,0,1,0-23,3.39,3.39,0,0,1,1.95-2,47.6,47.6,0,0,1,23,0,3.39,3.39,0,0,1,2,1.95A47.81,47.81,0,0,1,30.28,28.31Z"/><polygon class="cls-1" points="11.74 15.13 11.74 21.99 15.57 21.99 15.57 17.34 18.11 17.34 18.11 21.99 21.94 21.99 21.94 15.13 16.84 10.69 11.74 15.13"/></g></g></svg>