<svg xmlns="http://www.w3.org/2000/svg" viewBox="0 0 32.94 32.94"><defs><style>.cls-1{fill:#3a3735;}</style></defs><g id="Layer_2" data-name="Layer 2"><g id="Layer_1-2" data-name="Layer 1"><path class="cls-1" d="M31.51,4.77a5.22,5.22,0,0,0-3.34-3.34,48.5,48.5,0,0,0-23.4,0A5.24,5.24,0,0,0,1.43,4.77a48.5,48.5,0,0,0,0,23.4,5.22,5.22,0,0,0,3.34,3.34,48.5,48.5,0,0,0,23.4,0,5.24,5.24,0,0,0,3.34-3.34A48.5,48.5,0,0,0,31.51,4.77ZM22.71,21.3,21.3,22.71l-4.83-4.82-4.82,4.82L10.23,21.3l4.83-4.83-4.83-4.82,1.42-1.42,4.82,4.83,4.83-4.83,1.41,1.42-4.82,4.82Z"/></g></g></svg>