<svg xmlns="http://www.w3.org/2000/svg" viewBox="0 0 33.68 33.68"><defs><style>.cls-1{fill:#3a3735;}</style></defs><g id="Layer_2" data-name="Layer 2"><g id="Layer_1-2" data-name="Layer 1"><path class="cls-1" d="M32.22,4.88A5.31,5.31,0,0,0,28.8,1.47a49.39,49.39,0,0,0-23.92,0A5.27,5.27,0,0,0,1.47,4.88a49.39,49.39,0,0,0,0,23.92,5.31,5.31,0,0,0,3.41,3.42,49.63,49.63,0,0,0,23.92,0,5.35,5.35,0,0,0,3.42-3.42A49.63,49.63,0,0,0,32.22,4.88ZM21.94,22H18.11V17.34H15.57V22H11.75V15.13l5.09-4.44,5.1,4.44Z"/></g></g></svg>