<svg xmlns="http://www.w3.org/2000/svg" viewBox="0 0 33.68 33.68"><defs><style>.cls-1{fill:#3a3735;}</style></defs><g id="Layer_2" data-name="Layer 2"><g id="Layer_1-2" data-name="Layer 1"><path class="cls-1" d="M32.22,4.88a5.32,5.32,0,0,0-3.41-3.41,49.43,49.43,0,0,0-23.93,0A5.27,5.27,0,0,0,1.47,4.88a49.39,49.39,0,0,0,0,23.92,5.31,5.31,0,0,0,3.41,3.42,49.68,49.68,0,0,0,23.93,0,5.35,5.35,0,0,0,3.41-3.42A49.63,49.63,0,0,0,32.22,4.88ZM21.82,23l-2.88-2.88a5.14,5.14,0,1,1,1.41-1.41l2.88,2.88Z"/><path class="cls-1" d="M16.07,12.69a3.15,3.15,0,1,0,3.15,3.15A3.15,3.15,0,0,0,16.07,12.69Z"/></g></g></svg>