<svg xmlns="http://www.w3.org/2000/svg" viewBox="0 0 32.94 32.94"><defs><style>.cls-1{fill:#3a3735;}</style></defs><g id="Layer_2" data-name="Layer 2"><g id="Layer_1-2" data-name="Layer 1"><path class="cls-1" d="M31.51,4.77a5.24,5.24,0,0,0-3.34-3.34,48.5,48.5,0,0,0-23.4,0A5.24,5.24,0,0,0,1.43,4.77a48.5,48.5,0,0,0,0,23.4,5.22,5.22,0,0,0,3.34,3.34,48.5,48.5,0,0,0,23.4,0,5.24,5.24,0,0,0,3.34-3.34A48.5,48.5,0,0,0,31.51,4.77Zm-15,5a3.11,3.11,0,1,1-3.1,3.11A3.11,3.11,0,0,1,16.47,9.76Zm4.62,12.53c-.66.52-2.48.89-4.62.89s-4-.37-4.62-.89a.54.54,0,0,1-.09-.7l2.45-3.95h4.52l2.45,3.95A.53.53,0,0,1,21.09,22.29Z"/></g></g></svg>